@startuml
/'
https://yq.aliyun.com/articles/25405
泛化，Generalization：<|--
关联，Association：<--
组合，Composition：*--
聚合，Aggregation：o--
实现，Realization：<|..
依赖，Dependency：<..'/

abstract class AbstractMap
class ConcurrentHashMap{
    +volitale Segment[] segment
}
interface ConcurrentMap
class Segment{
    +volitale HashEntry[] table
}
class ReentrantLock

AbstractMap<|--ConcurrentHashMap
ConcurrentMap<|..ConcurrentHashMap
ConcurrentHashMap *--- Segment:contains
ReentrantLock <|--Segment
/'class ArrayList {
Object[] elementData
size()
}
enum TimeUnit {
DAYS
HOURS
MINUTES
}'/

@enduml